<svg xmlns="http://www.w3.org/2000/svg" fill="none" viewBox="0 0 148 114"><path stroke="#000" stroke-width="6" d="M7 3h136v102H7z"/><path fill="#000" d="M22.154 37.25c-2.566 0-4.883-.5-6.95-1.5-2.066-1-3.85-2.35-5.35-4.05a19.82 19.82 0 0 1-3.5-5.8c-.8-2.167-1.2-4.383-1.2-6.65 0-2.367.434-4.617 1.3-6.75a18.628 18.628 0 0 1 3.6-5.75 16.771 16.771 0 0 1 5.4-4c2.1-1 4.367-1.5 6.8-1.5 2.534 0 4.834.517 6.9 1.55 2.1 1.033 3.884 2.417 5.35 4.15a18.984 18.984 0 0 1 3.45 5.8 17.859 17.859 0 0 1 1.25 6.55c0 2.367-.433 4.633-1.3 6.8a18.646 18.646 0 0 1-3.55 5.75 16.96 16.96 0 0 1-5.45 3.95c-2.066.967-4.316 1.45-6.75 1.45zm-11.3-18c0 1.667.267 3.283.8 4.85a14.126 14.126 0 0 0 2.25 4.2c1 1.2 2.2 2.15 3.6 2.85 1.4.7 2.967 1.05 4.7 1.05 1.8 0 3.4-.367 4.8-1.1a10.353 10.353 0 0 0 3.5-2.95 14.054 14.054 0 0 0 2.2-4.2c.5-1.567.75-3.133.75-4.7 0-1.667-.266-3.267-.8-4.8-.5-1.567-1.25-2.95-2.25-4.15-1-1.233-2.2-2.2-3.6-2.9-1.366-.7-2.9-1.05-4.6-1.05-1.8 0-3.4.367-4.8 1.1s-2.583 1.717-3.55 2.95a14.274 14.274 0 0 0-2.25 4.15c-.5 1.533-.75 3.1-.75 4.7zM90.153 1.5V37h-5.65V21.35h-17.9V37h-5.6V1.5h5.6v14.85h17.9V1.5h5.65zm38.758 35.75c-2.566 0-4.883-.5-6.95-1.5a16.85 16.85 0 0 1-5.35-4.05 19.835 19.835 0 0 1-3.5-5.8c-.8-2.167-1.2-4.383-1.2-6.65 0-2.367.434-4.617 1.3-6.75a18.641 18.641 0 0 1 3.6-5.75 16.786 16.786 0 0 1 5.4-4c2.1-1 4.367-1.5 6.8-1.5 2.534 0 4.834.517 6.9 1.55 2.1 1.033 3.884 2.417 5.35 4.15a18.984 18.984 0 0 1 3.45 5.8 17.844 17.844 0 0 1 1.25 6.55c0 2.367-.433 4.633-1.3 6.8a18.625 18.625 0 0 1-3.55 5.75 16.957 16.957 0 0 1-5.45 3.95c-2.066.967-4.316 1.45-6.75 1.45zm-11.3-18c0 1.667.267 3.283.8 4.85a14.158 14.158 0 0 0 2.25 4.2c1 1.2 2.2 2.15 3.6 2.85 1.4.7 2.967 1.05 4.7 1.05 1.8 0 3.4-.367 4.8-1.1a10.35 10.35 0 0 0 3.5-2.95 14.045 14.045 0 0 0 2.2-4.2c.5-1.567.75-3.133.75-4.7 0-1.667-.266-3.267-.8-4.8-.5-1.567-1.25-2.95-2.25-4.15-1-1.233-2.2-2.2-3.6-2.9-1.366-.7-2.9-1.05-4.6-1.05-1.8 0-3.4.367-4.8 1.1s-2.583 1.717-3.55 2.95a14.307 14.307 0 0 0-2.25 4.15c-.5 1.533-.75 3.1-.75 4.7zm-83.895 22.2h-11.8V72h-5.65V41.45H4.415V36.5h29.3v4.95zm34.61 25.6V72h-24.35V36.5h23.9v4.95h-18.3v10.1h15.85v4.65h-15.85v10.85h18.75zM79.654 72V36.5h24.95v4.9h-19.35v9.95h10.4c3.933 0 6.883.933 8.85 2.8 1.966 1.833 2.95 4.267 2.95 7.3 0 2.033-.434 3.85-1.3 5.45-.834 1.567-2.1 2.817-3.8 3.75-1.667.9-3.784 1.35-6.35 1.35h-16.35zm5.6-4.9h10c1.533 0 2.766-.283 3.7-.85.966-.567 1.65-1.283 2.05-2.15.433-.9.65-1.833.65-2.8a6.64 6.64 0 0 0-.55-2.7c-.367-.833-1.034-1.5-2-2-.934-.533-2.25-.8-3.95-.8h-9.9v11.3zm57.305-.05V72h-24.35V36.5h23.9v4.95h-18.3v10.1h15.85v4.65h-15.85v10.85h18.75zM33.59 71.5V107h-5.65V91.35h-17.9V107h-5.6V71.5h5.6v14.85h17.9V71.5h5.65zm19.259 0h5.3l13.8 35.5h-5.9l-3.75-9.65h-13.7l-3.7 9.65h-5.95l13.9-35.5zm8.35 21.7-5.7-15.55-5.9 15.55h11.6zm10.54 20.6v-11.75h1.7c.933 0 1.733-.367 2.4-1.1.7-.733 1.283-1.9 1.75-3.5.5-1.6.883-3.7 1.15-6.3.3-2.633.517-5.85.65-9.65l.25-10h22.85v30.55h4.5v11.75h-4.95V107h-25.35v6.8h-4.95zm8.8-11.75h16.3v-25.6h-12l-.15 5.8c-.1 3.833-.3 7.083-.6 9.75-.3 2.633-.734 4.767-1.3 6.4-.567 1.633-1.317 2.85-2.25 3.65zm48.173 5.2c-2.567 0-4.883-.5-6.95-1.5s-3.85-2.35-5.35-4.05a19.814 19.814 0 0 1-3.5-5.8c-.8-2.167-1.2-4.383-1.2-6.65 0-2.367.433-4.617 1.3-6.75a18.641 18.641 0 0 1 3.6-5.75 16.765 16.765 0 0 1 5.4-4c2.1-1 4.367-1.5 6.8-1.5 2.533 0 4.833.517 6.9 1.55 2.1 1.033 3.883 2.417 5.35 4.15a18.983 18.983 0 0 1 3.45 5.8 17.865 17.865 0 0 1 1.25 6.55c0 2.367-.433 4.633-1.3 6.8a18.644 18.644 0 0 1-3.55 5.75 16.957 16.957 0 0 1-5.45 3.95c-2.067.967-4.317 1.45-6.75 1.45zm-11.3-18c0 1.667.267 3.283.8 4.85a14.112 14.112 0 0 0 2.25 4.2c1 1.2 2.2 2.15 3.6 2.85 1.4.7 2.967 1.05 4.7 1.05 1.8 0 3.4-.367 4.8-1.1a10.346 10.346 0 0 0 3.5-2.95 14.045 14.045 0 0 0 2.2-4.2c.5-1.567.75-3.133.75-4.7 0-1.667-.267-3.267-.8-4.8-.5-1.567-1.25-2.95-2.25-4.15-1-1.233-2.2-2.2-3.6-2.9-1.367-.7-2.9-1.05-4.6-1.05-1.8 0-3.4.367-4.8 1.1a10.863 10.863 0 0 0-3.55 2.95 14.26 14.26 0 0 0-2.25 4.15c-.5 1.533-.75 3.1-.75 4.7z"/></svg>