<svg xmlns="http://www.w3.org/2000/svg" fill="none" viewBox="0 0 48 48"><circle cx="24" cy="24" r="23.5" stroke="#000"/><path fill="#000" d="M32.736 18.478c-.33-1.127-.858-2.075-1.616-2.899a7.763 7.763 0 0 0-2.61-1.868 8.488 8.488 0 0 0-3.773-.702 13.88 13.88 0 0 0-1.37.112c-1.259.182-2.367.563-3.389 1.163a8.01 8.01 0 0 0-3.025 3.099c-.365.671-.725 1.855-.878 2.628-.181.912-.022 2.493.342 3.385.453 1.111.827 1.603 1.737 2.291.005.004.568.415.943.409.683-.014.819-.676.884-.994.012-.06.024-.12.038-.175.013-.05.03-.102.046-.157.097-.316.228-.748.01-1.132a2.174 2.174 0 0 0-.264-.354c-.047-.053-.093-.105-.131-.162-.324-.487-.488-1.097-.488-1.813 0-.938.21-1.788.641-2.598.783-1.47 2.082-2.397 3.757-2.683.953-.161 2.064-.094 2.898.177.761.247 1.41.685 1.875 1.266.492.615.773 1.395.835 2.32.041.59-.012 1.183-.055 1.578-.169 1.518-.605 2.74-1.297 3.634-.566.732-1.177 1.1-1.868 1.123-.445.018-.777-.074-1.078-.292a1.3 1.3 0 0 1-.532-.794c-.09-.385.019-.783.134-1.205l.019-.068c.1-.37.206-.71.31-1.044.163-.526.331-1.07.47-1.7.158-.713.178-1.288.065-1.758-.14-.583-.45-1.02-.92-1.3-.498-.294-1.203-.35-1.795-.144-.882.306-1.554 1.117-1.846 2.227a4.888 4.888 0 0 0-.126 1.758c.049.472.153.901.346 1.42l-.02.068c-.015.046-.027.091-.037.13-.207.877-.41 1.742-.61 2.606-.191.82-.382 1.639-.578 2.466l-.044.185c-.2.843-.406 1.714-.454 2.754l-.021.435c-.043.808-.086 1.643.021 2.417.021.15.068.489.397.607a.463.463 0 0 0 .284.106c.275 0 .52-.283.728-.523.68-.783 1.257-1.771 1.766-3.02.228-.56.379-1.161.525-1.743l.088-.347c.106-.414.21-.834.314-1.25l.007-.027c.192.17.413.324.67.466a4.284 4.284 0 0 0 1.821.528c.624.043 1.28-.038 2.004-.249.55-.159 1.077-.4 1.567-.718 1.755-1.139 2.951-3.131 3.369-5.61.125-.74.178-1.336.178-1.99 0-.756-.089-1.442-.264-2.04zm-.768 3.881c-.376 2.233-1.435 4.015-2.982 5.019a5.01 5.01 0 0 1-1.338.613c-.626.183-1.186.254-1.707.217a3.391 3.391 0 0 1-1.463-.42c-.44-.244-.724-.509-.924-.858l-.531-.93-.479 1.903c-.103.413-.206.83-.312 1.243l-.09.352c-.144.577-.28 1.122-.485 1.623-.456 1.12-.965 2.005-1.554 2.704-.046-.595-.012-1.261.022-1.91l.022-.439c.044-.957.24-1.787.431-2.59l.044-.186c.196-.828.387-1.648.578-2.468.202-.863.403-1.728.61-2.603.006-.025.015-.054.024-.084.052-.177.106-.36.033-.545a4.812 4.812 0 0 1-.327-1.287 3.999 3.999 0 0 1 .103-1.44c.215-.821.685-1.412 1.29-1.621.149-.052.306-.075.456-.075.246 0 .473.06.62.146.263.156.432.401.515.75.08.332.058.79-.067 1.358a19.512 19.512 0 0 1-.452 1.63c-.107.342-.215.691-.319 1.073l-.018.066c-.133.487-.284 1.039-.142 1.643.129.547.414.974.87 1.305.454.328.987.475 1.611.455.949-.032 1.797-.523 2.52-1.458.793-1.023 1.29-2.395 1.477-4.079.046-.429.104-1.076.059-1.736-.076-1.107-.421-2.053-1.028-2.812a4.798 4.798 0 0 0-2.283-1.549c-.957-.311-2.224-.39-3.306-.206-1.948.332-3.46 1.415-4.375 3.13a6.259 6.259 0 0 0-.745 3.016c0 .894.214 1.668.635 2.303.058.087.127.17.2.252.064.074.125.144.162.21.026.071-.049.319-.085.438a5.31 5.31 0 0 0-.056.191c-.018.07-.034.145-.05.221-.016.083-.042.21-.07.28a2.136 2.136 0 0 1-.39-.221c-.779-.587-1.064-.965-1.455-1.923-.293-.72-.438-2.144-.293-2.876.162-.82.508-1.864.787-2.377a7.148 7.148 0 0 1 2.702-2.764c.923-.543 1.93-.887 3.078-1.054.408-.06.841-.083 1.286-.104a7.606 7.606 0 0 1 3.386.63 6.908 6.908 0 0 1 2.323 1.663c.666.722 1.13 1.556 1.42 2.55.151.516.228 1.118.228 1.789 0 .602-.05 1.153-.166 1.842z"/></svg>