<svg xmlns="http://www.w3.org/2000/svg" fill="none" viewBox="0 0 48 48"><path fill="#000" d="M37.125 32.953h-3.938c-.468 0-.937-.281-1.218-.656l-.375-.61c-.235-.28-2.39-2.765-3.703-3.562-.516-.281-.704-.234-.704-.234s-.046.14-.046.187v2.484a2.35 2.35 0 0 1-2.344 2.344h-.938c-.234 0-5.484-.094-9.656-6.328-3.281-4.875-4.36-8.062-4.734-9.89-.094-.422.047-.844.28-1.172A1.402 1.402 0 0 1 10.83 15h3.327c.61 0 1.125.375 1.313.984.375 1.079 1.312 3.844 2.437 5.625 1.64 2.72 2.297 2.953 2.485 2.953.14-.234.093-1.171.093-1.78v-1.454c0-1.172.047-2.765-.422-3.515l-.937-1.36a.93.93 0 0 1-.047-.984c.14-.328.469-.516.844-.516h5.344a1.41 1.41 0 0 1 1.406 1.406v6.75c0 .047.047.094.047.094s.187 0 .703-.469c1.078-1.078 2.437-3.093 3.797-5.859l.468-1.078c.235-.516.75-.844 1.313-.844h3.469c.468 0 .89.235 1.172.61.28.375.328.89.14 1.312l-.375.984v.047c-.047.094-1.312 2.578-2.625 4.407-1.031 1.406-1.453 2.062-1.36 2.296.095.141.704.844 1.313 1.407 1.125 1.172 2.532 2.672 3.047 3.656.235.422.469.797.61 1.125.234.422.234.937-.047 1.406-.282.516-.703.75-1.22.75zm-9.844-6c.328 0 .703.14 1.125.375 1.547.89 3.89 3.656 3.985 3.797l.046.047.375.61c.094.14.235.234.422.234h3.89c.235 0 .376-.141.423-.235.047-.047.14-.234 0-.469-.188-.328-.375-.703-.61-1.125-.468-.843-1.875-2.343-2.906-3.468-1.031-1.125-1.406-1.5-1.5-1.735-.281-.703.14-1.265 1.5-3.14 1.219-1.688 2.39-3.985 2.531-4.266l.375-.984c.047-.14.047-.328-.046-.422a.426.426 0 0 0-.375-.188h-3.47c-.187 0-.374.094-.421.282l-.469 1.125c-1.031 2.015-2.531 4.687-3.984 6.14-.61.61-1.172.797-1.64.656-.563-.187-.704-.796-.704-.843v-6.89a.47.47 0 0 0-.469-.47h-5.437l.937 1.36c.61.984.61 2.719.563 4.078v1.36c.047 1.312.047 2.53-.797 2.718-.938.188-1.922-.797-3.516-3.375-1.078-1.828-2.015-4.406-2.484-5.813-.047-.187-.234-.328-.469-.328h-3.281a.426.426 0 0 0-.375.188c-.094.094-.094.234-.094.375.328 1.734 1.406 4.781 4.594 9.562 3.89 5.813 8.812 5.907 8.86 5.907h.937a1.41 1.41 0 0 0 1.406-1.407v-2.484c0-.047 0-.703.516-1.031.187-.094.375-.14.562-.14z"/><circle cx="24" cy="24" r="23.5" stroke="#000"/></svg>