<svg xmlns="http://www.w3.org/2000/svg" fill="none" viewBox="0 0 48 48"><path fill="#000" d="M31.83 14H16.17C13.32 14 11 16.436 11 19.43v9.14c0 2.994 2.32 5.43 5.17 5.43h15.66c2.85 0 5.17-2.436 5.17-5.43v-9.14c0-2.994-2.32-5.43-5.17-5.43zm4.109 14.57c0 2.381-1.844 4.319-4.11 4.319H16.17c-2.265 0-4.109-1.938-4.109-4.32V19.43c0-2.381 1.844-4.319 4.11-4.319H31.83c2.265 0 4.109 1.938 4.109 4.32v9.139z"/><path fill="#000" d="m28.701 23.799-7.351-4.508a.511.511 0 0 0-.532-.003.56.56 0 0 0-.267.482v9.016c0 .199.102.383.267.482a.513.513 0 0 0 .532-.003l7.351-4.507c.163-.1.263-.283.263-.48s-.1-.38-.263-.479zm-7.089 4.017V20.74l5.771 3.54-5.77 3.537z"/><circle cx="24" cy="24" r="23.5" stroke="#000"/></svg>